<svg height="512" viewBox="0 0 128 128" width="512" xmlns="http://www.w3.org/2000/svg"><g id="Circle_Grid" data-name="Circle Grid"><circle cx="64" cy="64" fill="#3b5059" r="64"/></g><g id="icon"><path d="m32.258 106.106a1.244 1.244 0 0 1 .217-1.788c3.3-2.473 5.717-5.961 8.34-20.9 3.622-20.689 20.654-25.884 20.831-25.937a1.25 1.25 0 0 1 1.546.857 1.235 1.235 0 0 1 -.848 1.537c-.636.194-15.725 4.859-19.073 23.985-2.788 15.9-5.627 19.735-9.3 22.447a1.255 1.255 0 0 1 -1.713-.201z" fill="#eeefee"/><path d="m93.793 50.144-13.198-13.198 15.998-15.946z" fill="#2cbfae"/><path d="m96.593 21-15.998 15.946-13.304-13.305z" fill="#f6c863"/><path d="m80.595 36.946-26.405 26.299 13.101-39.604z" fill="#69b0ee"/><path d="m93.793 50.144-39.603 13.101 26.405-26.299z" fill="#ef5261"/><g fill="#dbd8dd"><circle cx="37.941" cy="98.816" r="1.847" transform="matrix(.707 -.707 .707 .707 -58.76 55.771)"/><path d="m39.465 98.438 4.507.083a.269.269 0 0 1 .213.428l-4.22 5.793a.269.269 0 0 1 -.475-.078l-1.369-4.364z"/><path d="m36.293 99.149-4.507-.083a.269.269 0 0 1 -.213-.428l4.22-5.793a.269.269 0 0 1 .475.078l1.368 4.367z"/><circle cx="42.06" cy="83.962" r="1.847" transform="matrix(.474 -.881 .881 .474 -51.808 81.236)"/><path d="m43.411 83.161 4.34-1.218a.269.269 0 0 1 .327.349l-2.378 6.763a.269.269 0 0 1 -.477.062l-2.567-3.788z"/><path d="m40.578 84.756-4.34 1.218a.269.269 0 0 1 -.327-.349l2.374-6.763a.269.269 0 0 1 .477-.062l2.567 3.788z"/><circle cx="48.324" cy="69.015" r="1.847" transform="matrix(.807 -.59 .59 .807 -31.413 41.807)"/><path d="m49.888 68.875 4.44.774a.269.269 0 0 1 .145.456l-5.06 5.076a.269.269 0 0 1 -.457-.15l-.68-4.525z"/><path d="m46.645 69.091-4.44-.774a.269.269 0 0 1 -.145-.456l5.06-5.076a.269.269 0 0 1 .457.15l.68 4.525z"/></g><path d="m32.997 107-1.59-1.926" fill="none"/></g></svg>