<?xml version="1.0" encoding="iso-8859-1"?>
<!-- Generator: Adobe Illustrator 19.0.0, SVG Export Plug-In . SVG Version: 6.00 Build 0)  -->
<svg version="1.1" id="Capa_1" xmlns="http://www.w3.org/2000/svg" xmlns:xlink="http://www.w3.org/1999/xlink" x="0px" y="0px"
	 viewBox="0 0 512 512" style="enable-background:new 0 0 512 512;" xml:space="preserve">
<path style="fill:#E8DBC4;" d="M512,256c0,31.796-5.799,62.245-16.394,90.331c-2.988,7.92-6.353,15.653-10.083,23.176
	c-8.871,17.91-19.78,34.628-32.423,49.852c-7.492,9.049-15.611,17.575-24.283,25.496c-4.148,3.814-8.432,7.481-12.842,11.013
	c-1.881,1.515-3.793,2.999-5.726,4.462c-4.106,3.103-8.296,6.081-12.591,8.944c-9.216,6.123-18.84,11.672-28.839,16.593
	c-7.325,3.605-14.848,6.865-22.549,9.759c-1.191,0.449-2.382,0.888-3.574,1.317c-3.25,1.17-6.52,2.278-9.822,3.312
	c-7.565,2.382-15.276,4.42-23.124,6.081C292.415,510.046,274.442,512,256,512s-36.415-1.954-53.75-5.663
	c-7.847-1.661-15.559-3.699-23.124-6.081c-3.302-1.034-6.572-2.142-9.822-3.312c-0.575-0.199-1.139-0.408-1.714-0.627
	c-8.349-3.062-16.488-6.562-24.409-10.449c-16.123-7.931-31.295-17.512-45.296-28.515c-4.399-3.459-8.683-7.064-12.842-10.804
	c-9.373-8.401-18.119-17.502-26.154-27.199c-10.804-13.009-20.334-27.115-28.421-42.12c-5.047-9.383-9.54-19.111-13.406-29.153
	c-6.175-16.018-10.794-32.82-13.646-50.207c-1.452-8.735-2.445-17.627-2.968-26.645C0.146,266.188,0,261.11,0,256
	c0-22.35,2.863-44.042,8.255-64.711c2.361-9.091,5.214-17.983,8.537-26.645c10.073-26.373,24.388-50.657,42.099-71.993
	c5.13-6.207,10.564-12.152,16.259-17.836C121.469,28.578,185.386,0,256,0s134.531,28.578,180.851,74.815
	c5.695,5.684,11.118,11.63,16.248,17.826C489.89,136.965,512,193.902,512,256z"/>
<g>
	<path style="fill:#F9EED7;" d="M218.425,248.487c2.403,2.403,3.897,5.736,3.897,9.415c0,7.356-5.966,13.322-13.322,13.322h-1.317
		c-3.678,0-7.011,1.494-9.425,3.908c-2.403,2.403-3.897,5.736-3.897,9.415c0,7.367-5.956,13.322-13.322,13.322H3.417
		c-1.452-8.735-2.445-17.627-2.968-26.645h29.215c3.678,0,7.011-1.494,9.415-3.908c2.414-2.403,3.908-5.736,3.908-9.415
		c0-7.356-5.966-13.322-13.322-13.322H18.359c-3.678,0-7.011-1.494-9.415-3.908c-2.414-2.403-3.908-5.736-3.908-9.415
		c0-7.356,5.966-13.322,13.322-13.322h37.428c3.678,0,7.011-1.494,9.415-3.908c2.414-2.403,3.908-5.736,3.908-9.415
		c0-7.356-5.966-13.322-13.322-13.322H8.255c2.361-9.091,5.214-17.983,8.537-26.645h161.123c3.678,0,7.011,1.494,9.415,3.908
		c2.414,2.403,3.908,5.736,3.908,9.415c0,7.356,5.966,13.322,13.322,13.322H209c7.356,0,13.322,5.966,13.322,13.322
		c0,7.356-5.966,13.322-13.322,13.322h-24.43c-3.678,0-7.011,1.494-9.425,3.908c-2.403,2.403-3.897,5.736-3.897,9.415
		c0,7.356,5.966,13.322,13.322,13.322H209C212.679,244.579,216.012,246.073,218.425,248.487z"/>
	<path style="fill:#F9EED7;" d="M55.275,361.399c0,7.356-5.966,13.322-13.322,13.322h-3.709c-2.905,0-5.59,0.93-7.774,2.508
		c-5.047-9.383-9.54-19.111-13.406-29.153h24.889c3.678,0,7.011,1.494,9.415,3.897C53.781,354.388,55.275,357.721,55.275,361.399z"
		/>
	<path style="fill:#F9EED7;" d="M314.344,45.551L314.344,45.551c0-7.358-5.965-13.323-13.322-13.323H188.748
		c-7.358,0-13.324,5.965-13.324,13.323l0,0c0,7.358,5.965,13.322,13.324,13.322h36.316c7.358,0,13.324,5.965,13.324,13.322l0,0
		c0,7.358-5.965,13.323-13.324,13.323h-3.702c-7.358,0-13.322,5.965-13.322,13.322l0,0c0,7.358,5.965,13.323,13.322,13.323h107.605
		c7.358,0,13.323-5.965,13.323-13.323l0,0c0-7.358,5.965-13.322,13.322-13.322h3.702c7.358,0,13.324-5.965,13.324-13.323l0,0
		c0-7.358-5.965-13.322-13.324-13.322h-31.648C320.309,58.875,314.344,52.909,314.344,45.551z"/>
	<path style="fill:#F9EED7;" d="M418.232,226.74L418.232,226.74c0-7.358,5.965-13.324,13.323-13.324h42.933
		c7.358,0,13.323-5.965,13.323-13.323l0,0c0-7.358-5.965-13.324-13.323-13.324H347.92c-7.358,0-13.323,5.965-13.323,13.324l0,0
		c0,7.358-5.965,13.323-13.324,13.323H278.34c-7.358,0-13.323,5.965-13.323,13.324l0,0c0,7.358,5.965,13.324,13.323,13.324h63.659
		c7.358,0,13.323,5.965,13.323,13.324l0,0c0,7.358,5.965,13.324,13.323,13.324h126.569c7.358,0,13.323-5.965,13.323-13.324l0,0
		c0-7.358-5.965-13.324-13.323-13.324h-63.659C424.196,240.063,418.232,234.098,418.232,226.74z"/>
	<path style="fill:#F9EED7;" d="M495.606,346.331c-2.988,7.92-6.353,15.653-10.083,23.176H381.158c-3.678,0-7.011-1.494-9.425-3.908
		c-2.403-2.403-3.897-5.736-3.897-9.415c0-7.367-5.956-13.322-13.322-13.322h-21.086c-7.367,0-13.322-5.966-13.322-13.322v-0.01
		c0-7.356,5.956-13.322,13.322-13.322h126.568c7.356,0,13.322,5.966,13.322,13.322v0.01c0,3.678,1.494,7.011,3.908,9.415
		c2.403,2.414,5.736,3.908,9.415,3.908C490.099,342.862,493.244,344.168,495.606,346.331z"/>
</g>
<g>
	<path style="fill:#F4A14E;" d="M167.637,33.502h-18.705V57.36c0,2.244-2.743,3.408-5.403,3.408c-2.744,0-5.404-1.164-5.404-3.408
		V3.326c0-2.327,2.66-3.325,5.404-3.325c2.66,0,5.403,0.998,5.403,3.325v21.696h18.705V3.326c0-2.327,2.66-3.325,5.403-3.325
		c2.66,0,5.403,0.998,5.403,3.325V57.36c0,2.244-2.743,3.408-5.403,3.408c-2.743,0-5.403-1.164-5.403-3.408V33.502z"/>
	<path style="fill:#F4A14E;" d="M191.907,42.231V19.037C191.907,5.154,200.387,0,211.359,0c10.974,0,19.536,5.154,19.536,19.037
		v23.194c0,13.883-8.563,19.037-19.536,19.037C200.386,61.268,191.907,56.113,191.907,42.231z M220.088,19.037
		c0-6.567-3.325-9.56-8.729-9.56c-5.487,0-8.645,2.993-8.645,9.56v23.194c0,6.567,3.159,9.56,8.645,9.56
		c5.404,0,8.729-2.993,8.729-9.56V19.037z"/>
	<path style="fill:#F4A14E;" d="M277.859,0.001c2.328,0,3.408,2.494,3.408,4.821c0,2.577-1.247,4.905-3.408,4.905h-12.136V57.36
		c0,2.244-2.743,3.408-5.403,3.408c-2.744,0-5.404-1.164-5.404-3.408V9.727h-12.219c-2.162,0-3.408-2.244-3.408-4.905
		c0-2.327,1.08-4.821,3.408-4.821C242.696,0.001,277.859,0.001,277.859,0.001z"/>
	<path style="fill:#F4A14E;" d="M302.13,26.104h12.636c2.162,0,3.408,2.078,3.408,4.323c0,1.912-1.081,4.157-3.408,4.157H302.13
		v16.709h23.526c2.162,0,3.408,2.244,3.408,4.821c0,2.244-1.08,4.655-3.408,4.655h-29.593c-2.411,0-4.74-1.164-4.74-3.408V3.41
		c0-2.244,2.328-3.408,4.74-3.408h29.593c2.328,0,3.408,2.411,3.408,4.655c0,2.577-1.247,4.821-3.408,4.821H302.13V26.104z"/>
	<path style="fill:#F4A14E;" d="M344.275,60.768c-2.411,0-4.74-1.164-4.74-3.408V3.326c0-2.327,2.66-3.325,5.404-3.325
		c2.66,0,5.403,0.998,5.403,3.325v47.966h20.284c2.162,0,3.242,2.327,3.242,4.739c0,2.328-1.08,4.739-3.242,4.739h-26.351V60.768z"
		/>
	<path style="fill:#F4A14E;" d="M453.099,74.815v344.545c-7.492,9.049-15.611,17.575-24.283,25.496
		c-4.148,3.814-8.432,7.481-12.842,11.013c-1.881,1.515-3.793,2.999-5.726,4.462c-4.106,3.103-8.296,6.081-12.591,8.944
		c-9.216,6.123-18.84,11.672-28.839,16.593c-7.325,3.605-14.848,6.865-22.549,9.759v1.317h-3.574c-3.25,1.17-6.52,2.278-9.822,3.312
		c-7.565,2.382-15.276,4.42-23.124,6.081C292.415,510.046,274.442,512,256,512s-36.415-1.954-53.75-5.663
		c-7.847-1.661-15.559-3.699-23.124-6.081c-3.302-1.034-6.572-2.142-9.822-3.312h-1.714v-0.627
		c-8.349-3.062-16.488-6.562-24.409-10.449c-16.123-7.931-31.295-17.512-45.296-28.515c-4.399-3.459-8.683-7.064-12.842-10.804
		c-9.373-8.401-18.119-17.502-26.154-27.199V74.815H453.099z"/>
</g>
<path style="fill:#5C5E70;" d="M471.782,94.661H40.211c-2.235,0-4.047-1.812-4.047-4.047V73.632c0-2.235,1.812-4.047,4.047-4.047
	h431.571c2.235,0,4.047,1.812,4.047,4.047v16.983C475.829,92.85,474.017,94.661,471.782,94.661z"/>
<path style="fill:#E28D40;" d="M85.043,214.827v-84.051c0-3.299,2.675-5.974,5.974-5.974h70.601c3.299,0,5.974,2.675,5.974,5.974
	v84.051c0,3.299-2.675,5.974-5.974,5.974H91.017C87.718,220.801,85.043,218.126,85.043,214.827z"/>
<rect x="97.886" y="140.643" style="fill:#5C5E70;" width="56.863" height="59.904"/>
<path style="fill:#797B89;" d="M143.441,184.532h-4.546c-3.081,0-5.58-2.498-5.58-5.58v-24.179c0-3.081,2.498-5.58,5.58-5.58h4.546
	c3.081,0,5.58,2.498,5.58,5.58v24.179C149.021,182.035,146.523,184.532,143.441,184.532z"/>
<path style="fill:#B58657;" d="M175.573,211.628H75.196c-1.966,0-3.561,1.595-3.561,3.561v15.458c0,1.967,1.595,3.561,3.561,3.561
	h100.378c1.967,0,3.561-1.595,3.561-3.561v-15.458C179.135,213.223,177.541,211.628,175.573,211.628z"/>
<path style="fill:#E28D40;" d="M215.655,214.827v-84.051c0-3.299,2.675-5.974,5.974-5.974h70.601c3.299,0,5.974,2.675,5.974,5.974
	v84.051c0,3.299-2.675,5.974-5.974,5.974h-70.601C218.33,220.801,215.655,218.126,215.655,214.827z"/>
<rect x="228.498" y="140.643" style="fill:#5C5E70;" width="56.863" height="59.904"/>
<path style="fill:#797B89;" d="M274.054,184.532h-4.546c-3.081,0-5.58-2.498-5.58-5.58v-24.179c0-3.081,2.498-5.58,5.58-5.58h4.546
	c3.081,0,5.58,2.498,5.58,5.58v24.179C279.634,182.035,277.135,184.532,274.054,184.532z"/>
<path style="fill:#B58657;" d="M306.185,211.628H205.807c-1.967,0-3.561,1.595-3.561,3.561v15.458c0,1.967,1.595,3.561,3.561,3.561
	h100.378c1.966,0,3.561-1.595,3.561-3.561v-15.458C309.747,213.223,308.153,211.628,306.185,211.628z"/>
<path style="fill:#E28D40;" d="M346.268,214.827v-84.051c0-3.299,2.675-5.974,5.974-5.974h70.601c3.299,0,5.974,2.675,5.974,5.974
	v84.051c0,3.299-2.675,5.974-5.974,5.974h-70.601C348.943,220.801,346.268,218.126,346.268,214.827z"/>
<rect x="359.111" y="140.643" style="fill:#5C5E70;" width="56.863" height="59.904"/>
<path style="fill:#797B89;" d="M404.666,184.532h-4.546c-3.081,0-5.58-2.498-5.58-5.58v-24.179c0-3.081,2.498-5.58,5.58-5.58h4.546
	c3.081,0,5.58,2.498,5.58,5.58v24.179C410.246,182.035,407.747,184.532,404.666,184.532z"/>
<path style="fill:#B58657;" d="M436.798,211.628H336.419c-1.966,0-3.561,1.595-3.561,3.561v15.458c0,1.967,1.595,3.561,3.561,3.561
	h100.378c1.966,0,3.561-1.595,3.561-3.561v-15.458C440.36,213.223,438.765,211.628,436.798,211.628z"/>
<path style="fill:#E28D40;" d="M85.043,357.485v-84.051c0-3.299,2.675-5.974,5.974-5.974h70.601c3.299,0,5.974,2.675,5.974,5.974
	v84.051c0,3.299-2.675,5.974-5.974,5.974H91.017C87.718,363.458,85.043,360.783,85.043,357.485z"/>
<rect x="97.886" y="283.303" style="fill:#5C5E70;" width="56.863" height="59.904"/>
<path style="fill:#797B89;" d="M143.441,327.191h-4.546c-3.081,0-5.58-2.498-5.58-5.58v-24.179c0-3.081,2.498-5.58,5.58-5.58h4.546
	c3.081,0,5.58,2.498,5.58,5.58v24.179C149.021,324.693,146.523,327.191,143.441,327.191z"/>
<path style="fill:#B58657;" d="M175.573,354.286H75.196c-1.966,0-3.561,1.595-3.561,3.561v15.458c0,1.966,1.595,3.561,3.561,3.561
	h100.378c1.967,0,3.561-1.595,3.561-3.561v-15.458C179.135,355.881,177.541,354.286,175.573,354.286z"/>
<path style="fill:#E28D40;" d="M215.655,357.485v-84.051c0-3.299,2.675-5.974,5.974-5.974h70.601c3.299,0,5.974,2.675,5.974,5.974
	v84.051c0,3.299-2.675,5.974-5.974,5.974h-70.601C218.33,363.458,215.655,360.783,215.655,357.485z"/>
<rect x="228.498" y="283.303" style="fill:#5C5E70;" width="56.863" height="59.904"/>
<path style="fill:#797B89;" d="M274.054,327.191h-4.546c-3.081,0-5.58-2.498-5.58-5.58v-24.179c0-3.081,2.498-5.58,5.58-5.58h4.546
	c3.081,0,5.58,2.498,5.58,5.58v24.179C279.634,324.693,277.135,327.191,274.054,327.191z"/>
<path style="fill:#B58657;" d="M306.185,354.286H205.807c-1.967,0-3.561,1.595-3.561,3.561v15.458c0,1.966,1.595,3.561,3.561,3.561
	h100.378c1.966,0,3.561-1.595,3.561-3.561v-15.458C309.747,355.881,308.153,354.286,306.185,354.286z"/>
<path style="fill:#E28D40;" d="M346.268,357.485v-84.051c0-3.299,2.675-5.974,5.974-5.974h70.601c3.299,0,5.974,2.675,5.974,5.974
	v84.051c0,3.299-2.675,5.974-5.974,5.974h-70.601C348.943,363.458,346.268,360.783,346.268,357.485z"/>
<rect x="359.111" y="283.303" style="fill:#5C5E70;" width="56.863" height="59.904"/>
<path style="fill:#797B89;" d="M404.666,327.191h-4.546c-3.081,0-5.58-2.498-5.58-5.58v-24.179c0-3.081,2.498-5.58,5.58-5.58h4.546
	c3.081,0,5.58,2.498,5.58,5.58v24.179C410.246,324.693,407.747,327.191,404.666,327.191z"/>
<path style="fill:#B58657;" d="M436.798,354.286H336.419c-1.966,0-3.561,1.595-3.561,3.561v15.458c0,1.966,1.595,3.561,3.561,3.561
	h100.378c1.966,0,3.561-1.595,3.561-3.561v-15.458C440.36,355.881,438.765,354.286,436.798,354.286z"/>
<path style="fill:#E28D40;" d="M167.591,416.089v80.227c-8.349-3.062-16.488-6.562-24.409-10.449
	c-16.123-7.931-31.295-17.512-45.296-28.515c-4.399-3.459-8.683-7.064-12.842-10.804v-30.459c0-3.291,2.675-5.966,5.977-5.966
	h70.593C164.916,410.122,167.591,412.797,167.591,416.089z"/>
<path style="fill:#5C5E70;" d="M154.749,425.963v59.904h-11.567c-16.123-7.931-31.295-17.512-45.296-28.515v-31.389L154.749,425.963
	L154.749,425.963z"/>
<path style="fill:#797B89;" d="M143.441,469.849h-4.546c-3.081,0-5.58-2.498-5.58-5.58V440.09c0-3.081,2.498-5.58,5.58-5.58h4.546
	c3.081,0,5.58,2.498,5.58,5.58v24.179C149.021,467.35,146.523,469.849,143.441,469.849z"/>
<path style="fill:#B58657;" d="M179.127,500.255c-3.302-1.034-6.572-2.142-9.822-3.312h6.269
	C177.455,496.943,179.001,498.406,179.127,500.255z"/>
<path style="fill:#E28D40;" d="M215.655,500.142v-84.051c0-3.299,2.675-5.974,5.974-5.974h70.601c3.299,0,5.974,2.675,5.974,5.974
	v84.051c0,3.299-2.675,5.974-5.974,5.974h-70.601C218.33,506.116,215.655,503.441,215.655,500.142z"/>
<rect x="228.498" y="425.963" style="fill:#5C5E70;" width="56.863" height="59.904"/>
<path style="fill:#797B89;" d="M274.054,469.849h-4.546c-3.081,0-5.58-2.498-5.58-5.58V440.09c0-3.081,2.498-5.58,5.58-5.58h4.546
	c3.081,0,5.58,2.498,5.58,5.58v24.179C279.634,467.35,277.135,469.849,274.054,469.849z"/>
<path style="fill:#B58657;" d="M309.75,500.506v5.831C292.415,510.046,274.442,512,256,512s-36.415-1.954-53.75-5.663v-5.831
	c0-1.964,1.588-3.563,3.553-3.563h100.383C308.151,496.943,309.75,498.542,309.75,500.506z"/>
<path style="fill:#E28D40;" d="M428.816,416.089v28.766c-4.148,3.814-8.432,7.481-12.842,11.013
	c-1.881,1.515-3.793,2.999-5.726,4.462c-4.106,3.103-8.296,6.081-12.591,8.944c-9.216,6.123-18.84,11.672-28.839,16.593
	c-7.325,3.605-14.848,6.865-22.549,9.759v-79.538c0-3.291,2.675-5.966,5.977-5.966h70.593
	C426.141,410.122,428.816,412.797,428.816,416.089z"/>
<path style="fill:#5C5E70;" d="M415.974,425.963v29.905c-1.881,1.515-3.793,2.999-5.726,4.462
	c-4.106,3.103-8.296,6.081-12.591,8.944c-9.216,6.123-18.84,11.672-28.839,16.593h-9.707v-59.904L415.974,425.963L415.974,425.963z"
	/>
<path style="fill:#797B89;" d="M410.248,440.09v20.24c-4.106,3.103-8.296,6.081-12.591,8.944c-1.849-0.909-3.114-2.811-3.114-5.005
	V440.09c0-3.082,2.497-5.58,5.58-5.58h4.545C407.751,434.51,410.248,437.008,410.248,440.09z"/>
<path style="fill:#B58657;" d="M342.695,496.943c-3.25,1.17-6.52,2.278-9.822,3.312c0.125-1.849,1.661-3.312,3.542-3.312H342.695z"
	/>
<rect x="58.89" y="94.657" style="fill:#E28D40;" width="394.209" height="9.867"/>
<path style="fill:#797B89;" d="M454.596,86.312h-64.914c-1.118,0-2.025-0.906-2.025-2.025v-6.4c0-1.118,0.906-2.025,2.025-2.025
	h64.914c1.118,0,2.025,0.906,2.025,2.025v6.4C456.62,85.406,455.714,86.312,454.596,86.312z"/>
<g>
</g>
<g>
</g>
<g>
</g>
<g>
</g>
<g>
</g>
<g>
</g>
<g>
</g>
<g>
</g>
<g>
</g>
<g>
</g>
<g>
</g>
<g>
</g>
<g>
</g>
<g>
</g>
<g>
</g>
</svg>
